<svg width="165" height="40" viewBox="0 0 165 40" fill="none" xmlns="http://www.w3.org/2000/svg">
<g clip-path="url(#clip0_227_915)">
<path d="M60.228 29.9396C57.101 29.9396 54.5048 28.9052 52.4447 26.8364C50.3846 24.7676 49.3545 22.2105 49.3545 19.1651C49.3545 16.1197 50.3846 13.5626 52.4447 11.4938C54.5048 9.42502 57.101 8.39062 60.228 8.39062C62.1095 8.39062 63.849 8.83694 65.4414 9.72431C67.0338 10.6169 68.2794 11.8193 69.1675 13.3473L66.1982 15.0695C65.6411 14.0404 64.837 13.2265 63.7754 12.6227C62.7138 12.0189 61.5314 11.7196 60.228 11.7196C58.0102 11.7196 56.2128 12.4232 54.8359 13.8251C53.459 15.2323 52.7705 17.0123 52.7705 19.1651C52.7705 21.3179 53.459 23.1031 54.8359 24.5051C56.2128 25.9123 58.0102 26.6106 60.228 26.6106C61.5366 26.6106 62.7243 26.3113 63.7912 25.7075C64.8581 25.1037 65.6621 24.2898 66.1982 23.2607L69.1675 24.9514C68.2951 26.4741 67.0653 27.687 65.4677 28.5849C63.8753 29.4828 62.1252 29.9343 60.2228 29.9343L60.228 29.9396Z" fill="white"/>
<path d="M78.764 29.9394C76.583 29.9394 74.7331 29.1885 73.209 27.6816C71.6849 26.1799 70.9229 24.3264 70.9229 22.1316C70.9229 19.9368 71.6849 18.0832 73.209 16.5815C74.7331 15.0798 76.583 14.3237 78.764 14.3237C80.945 14.3237 82.8212 15.0746 84.3348 16.5815C85.8483 18.0885 86.6051 19.9368 86.6051 22.1316C86.6051 24.3264 85.8483 26.1799 84.3348 27.6816C82.8212 29.1833 80.9608 29.9394 78.764 29.9394ZM75.4688 25.4868C76.3622 26.3794 77.4606 26.8204 78.764 26.8204C80.0673 26.8204 81.171 26.3741 82.0591 25.4868C82.9526 24.5941 83.394 23.481 83.394 22.1316C83.394 20.7821 82.9473 19.669 82.0591 18.7763C81.1657 17.8837 80.0673 17.4427 78.764 17.4427C77.4606 17.4427 76.357 17.889 75.4688 18.7763C74.5754 19.669 74.1339 20.7874 74.1339 22.1316C74.1339 23.4757 74.5806 24.5941 75.4688 25.4868Z" fill="white"/>
<path d="M92.5599 11.8825C92.1553 12.2868 91.6718 12.4916 91.1199 12.4916C90.5681 12.4916 90.0846 12.2868 89.6799 11.8825C89.2753 11.4782 89.0703 10.9951 89.0703 10.4438C89.0703 9.89245 89.27 9.40939 89.6642 9.00508C90.0583 8.60077 90.5471 8.396 91.1199 8.396C91.6928 8.396 92.1815 8.60077 92.5757 9.00508C92.9699 9.40939 93.1696 9.89245 93.1696 10.4438C93.1696 10.9951 92.9646 11.4782 92.5599 11.8825ZM89.517 29.5564V14.7126H92.7281V29.5512H89.517V29.5564Z" fill="white"/>
<path d="M104.253 14.3291C105.956 14.3291 107.333 14.8752 108.384 15.9621C109.435 17.049 109.96 18.5454 109.96 20.4462V29.5562H106.755V20.7717C106.755 19.6638 106.455 18.8132 105.861 18.2199C105.267 17.6266 104.453 17.3273 103.428 17.3273C102.298 17.3273 101.389 17.6791 100.695 18.3827C100.001 19.0863 99.6544 20.1574 99.6544 21.6014V29.5562H96.4434V14.7124H99.6544V16.6132C100.627 15.0905 102.161 14.3291 104.258 14.3291H104.253Z" fill="white"/>
<path d="M125.165 8.7793H128.376V29.5564H125.165V27.4194C123.956 29.0996 122.222 29.9397 119.967 29.9397C117.928 29.9397 116.183 29.1836 114.738 27.6714C113.293 26.1592 112.567 24.3109 112.567 22.1371C112.567 19.9633 113.293 18.0888 114.738 16.5871C116.183 15.0854 117.928 14.3293 119.967 14.3293C122.227 14.3293 123.956 15.1589 125.165 16.8234V8.7793ZM117.113 25.5343C118.007 26.4375 119.121 26.8838 120.472 26.8838C121.822 26.8838 122.936 26.4322 123.83 25.5343C124.723 24.6365 125.165 23.5023 125.165 22.1371C125.165 20.7719 124.718 19.6378 123.83 18.7399C122.936 17.842 121.817 17.3905 120.472 17.3905C119.126 17.3905 118.007 17.842 117.113 18.7399C116.22 19.6378 115.778 20.7719 115.778 22.1371C115.778 23.5023 116.225 24.6365 117.113 25.5343Z" fill="white"/>
<path d="M135.323 17.2067C136.132 15.369 137.661 14.4448 139.9 14.4448V17.9156C138.67 17.8368 137.604 18.1308 136.694 18.7924C135.785 19.454 135.328 20.5462 135.328 22.0741V29.5512H132.122V14.7126H135.328V17.2067H135.323Z" fill="white"/>
<path d="M145.319 11.8825C144.914 12.2868 144.431 12.4916 143.879 12.4916C143.327 12.4916 142.843 12.2868 142.439 11.8825C142.034 11.4782 141.829 10.9951 141.829 10.4438C141.829 9.89245 142.029 9.40939 142.423 9.00508C142.817 8.60077 143.306 8.396 143.879 8.396C144.452 8.396 144.94 8.60077 145.334 9.00508C145.729 9.40939 145.928 9.89245 145.928 10.4438C145.928 10.9951 145.723 11.4782 145.319 11.8825ZM142.276 29.5564V14.7126H145.482V29.5512H142.276V29.5564Z" fill="white"/>
<path d="M157.606 14.3291C159.645 14.3291 161.39 15.0852 162.835 16.5974C164.28 18.1096 165.005 19.9579 165.005 22.1317C165.005 24.3055 164.28 26.18 162.835 27.6817C161.39 29.1834 159.645 29.9395 157.606 29.9395C155.346 29.9395 153.617 29.1099 152.408 27.4454V35.4895H149.202V14.7124H152.408V16.8494C153.617 15.1692 155.351 14.3291 157.606 14.3291ZM153.743 25.5341C154.636 26.4373 155.75 26.8836 157.101 26.8836C158.452 26.8836 159.566 26.432 160.459 25.5341C161.353 24.6363 161.794 23.5021 161.794 22.1369C161.794 20.7717 161.347 19.6376 160.459 18.7397C159.566 17.8418 158.446 17.3903 157.101 17.3903C155.756 17.3903 154.636 17.8418 153.743 18.7397C152.849 19.6376 152.408 20.7717 152.408 22.1369C152.408 23.5021 152.855 24.6363 153.743 25.5341Z" fill="white"/>
<path d="M30.6134 13.7415C29.0893 15.2642 27.5652 16.7922 26.0359 18.3149C25.1635 19.1812 24.6642 19.1655 23.776 18.3096C21.7054 16.3196 19.824 14.1248 17.6009 12.2975C14.3583 9.63542 8.97671 9.78244 5.76038 12.4761C1.82405 15.7683 1.24069 20.9035 3.41645 24.768C5.98636 29.3361 11.9303 30.9849 16.5235 28.4015C17.3802 27.9184 18.1527 27.3251 18.8464 26.632C20.4546 25.0305 22.0575 23.4186 23.6709 21.8171C24.6747 20.8195 25.1477 20.7985 26.1252 21.7751C29.1629 24.7943 32.19 27.8239 35.2172 30.8588C36.1158 31.762 36.0633 32.119 35.1909 33.0799C32.1848 36.3878 28.5743 38.6352 24.1702 39.575C15.9822 41.3183 7.39482 37.648 3.05382 30.5228C-1.3555 23.2978 -0.998127 14.4871 4.189 7.82392C10.9002 -0.797768 22.1679 -2.05269 30.3506 2.87774C32.3267 4.06965 33.9191 5.66587 35.5167 7.27784C36.1369 7.90793 35.9056 8.454 35.3696 8.98958C33.7824 10.5753 32.1953 12.161 30.6081 13.7467L30.6134 13.7415Z" fill="white"/>
</g>
<defs>
<clipPath id="clip0_227_915">
<rect width="165" height="40" fill="white"/>
</clipPath>
</defs>
</svg>
