<svg width="49" height="50" viewBox="0 0 49 50" fill="none" xmlns="http://www.w3.org/2000/svg">
<path d="M4.13281 21.0386H44.4018" stroke="white" stroke-width="1.5" stroke-miterlimit="10" stroke-linecap="round" stroke-linejoin="round"/>
<path d="M23.358 42.1792H13.0693C5.9215 42.1792 4.10938 40.4074 4.10938 33.3402V16.7896C4.10938 10.3869 5.59939 8.33313 11.2169 8.01098C11.7807 7.99085 12.4048 7.9707 13.0693 7.9707H35.4387C42.5864 7.9707 44.3985 9.74254 44.3985 16.8097V25.6891" stroke="white" stroke-width="1.5" stroke-linecap="round" stroke-linejoin="round"/>
<path d="M12.187 33.1187H20.2408" stroke="white" stroke-width="1.5" stroke-miterlimit="10" stroke-linecap="round" stroke-linejoin="round"/>
<path d="M44.402 37.1466C44.402 38.6567 43.9792 40.0862 43.2342 41.2943C41.8449 43.6299 39.2879 45.2004 36.3482 45.2004C33.4086 45.2004 30.8515 43.6299 29.4623 41.2943C28.7173 40.0862 28.2944 38.6567 28.2944 37.1466C28.2944 32.6968 31.8985 29.0928 36.3482 29.0928C40.798 29.0928 44.402 32.6968 44.402 37.1466Z" stroke="white" stroke-width="1.5" stroke-miterlimit="10" stroke-linecap="round" stroke-linejoin="round"/>
<path d="M33.2109 37.145L35.2042 39.1384L39.4929 35.1719" stroke="white" stroke-width="1.5" stroke-linecap="round" stroke-linejoin="round"/>
</svg>
