<svg width="48" height="47" viewBox="0 0 48 47" fill="none" xmlns="http://www.w3.org/2000/svg">
<path d="M8.47406 11.632C5.99946 14.9055 4.53809 18.9779 4.53809 23.3815C4.53809 34.1372 13.2674 42.8665 24.0231 42.8665C34.7788 42.8665 43.5081 34.1372 43.5081 23.3815C43.5081 12.6258 34.7788 3.89648 24.0231 3.89648" stroke="white" stroke-width="1.5" stroke-linecap="round" stroke-linejoin="round"/>
<path d="M10.3843 23.3817C10.3843 30.9224 16.4831 37.0212 24.0238 37.0212C31.5645 37.0212 37.6633 30.9224 37.6633 23.3817C37.6633 15.841 31.5645 9.74219 24.0238 9.74219" stroke="white" stroke-width="1.5" stroke-linecap="round" stroke-linejoin="round"/>
<path d="M24.0234 31.1759C28.3296 31.1759 31.8174 27.6881 31.8174 23.3819C31.8174 19.0757 28.3296 15.5879 24.0234 15.5879" stroke="white" stroke-width="1.5" stroke-linecap="round" stroke-linejoin="round"/>
</svg>
