<svg width="36" height="41" viewBox="0 0 36 41" fill="none" xmlns="http://www.w3.org/2000/svg">
<g clip-path="url(#clip0_359_10)">
<path d="M19.9757 41C13.1415 41 6.65178 37.3928 3.01429 31.2825C-1.38819 23.8817 -0.937301 14.7602 4.1643 8.04864C10.5223 -0.310981 21.5209 -2.43587 30.3208 2.98519C32.3371 4.22903 33.9887 5.9393 35.4427 7.44227C35.8176 7.83097 36.5623 8.87787 35.3008 10.1684C34.1255 11.3707 32.9501 12.5731 31.7697 13.7755L29.5305 16.0662C28.4565 17.1701 27.3774 18.274 26.2983 19.3727C25.1837 20.5026 24.2617 20.5026 23.1167 19.3727C22.3923 18.6575 21.683 17.9112 20.9991 17.1908C19.7934 15.9211 18.5521 14.6099 17.2045 13.4749C14.3878 11.1064 9.58001 11.1842 6.70751 13.6459C3.40438 16.4756 2.53807 21.0882 4.61012 24.856C5.71454 26.8669 7.54342 28.318 9.76239 28.9503C11.9814 29.5826 14.2915 29.3027 16.2673 28.1625C17.012 27.7324 17.7162 27.183 18.3546 26.5352L20.3152 24.5295C21.2119 23.6122 22.1035 22.6948 23.0002 21.7827C24.2465 20.5129 25.1635 20.4974 26.3793 21.7412C29.3076 24.7264 32.2307 27.7116 35.1438 30.7072C36.3951 31.9873 36.1063 32.8217 35.1438 33.9101C32.0534 37.3928 28.3501 39.6266 24.1401 40.5439C22.752 40.8445 21.3588 40.9948 19.9808 40.9948L19.9757 41ZM19.9656 1.47185C14.4232 1.47185 9.00753 4.06318 5.29912 8.94524C0.491351 15.2733 0.0860592 23.5396 4.24029 30.5206C8.23241 37.227 16.2926 40.7616 23.8311 39.1187C27.7979 38.2532 31.1466 36.2319 34.0748 32.9358C34.4801 32.4797 34.5358 32.3294 34.5409 32.2879C34.5409 32.2724 34.5004 32.1428 34.1204 31.7593C31.2074 28.7689 28.2842 25.7785 25.356 22.7985C24.9203 22.3528 24.4694 22.3666 24.0033 22.8399C23.1066 23.7521 22.215 24.6694 21.3183 25.5816L19.3526 27.5873C18.6231 28.3284 17.8176 28.9607 16.9563 29.453C14.6512 30.785 11.951 31.1115 9.36723 30.3755C6.77843 29.6396 4.64052 27.9397 3.34865 25.5868C0.932105 21.1919 1.93013 15.8226 5.77534 12.5265C9.20005 9.59308 14.7323 9.51015 18.1063 12.3451C19.5147 13.5267 20.7863 14.8742 22.0174 16.1699C22.6912 16.8851 23.3903 17.621 24.0996 18.3155C24.7024 18.9115 24.7379 18.8804 25.2749 18.331C26.354 17.2323 27.428 16.1336 28.502 15.0297L30.7413 12.7338C31.9166 11.5314 33.092 10.3238 34.2724 9.12145C34.6574 8.72757 34.6017 8.66538 34.4092 8.46844C32.9451 6.9551 31.4303 5.38476 29.571 4.23421C26.5414 2.36845 23.2282 1.46149 19.9605 1.46149L19.9656 1.47185Z" fill="white"/>
</g>
<defs>
<clipPath id="clip0_359_10">
<rect width="36" height="41" fill="white"/>
</clipPath>
</defs>
</svg>
