<svg width="36" height="40" viewBox="0 0 36 40" fill="none" xmlns="http://www.w3.org/2000/svg">
<path d="M25.5071 17.783C26.5262 16.7683 27.5424 15.7519 28.5586 14.7354C29.0667 14.2272 29.5748 13.7189 30.0832 13.211M25.5071 17.783L30.0832 13.211M25.5071 17.783C25.0867 18.2004 24.9361 18.2082 24.9176 18.2081C24.8897 18.2079 24.731 18.1883 24.2965 17.7695L24.2957 17.7689C23.5662 17.0677 22.8649 16.3454 22.1531 15.6123C21.8649 15.3154 21.575 15.0168 21.2808 14.7171C20.2689 13.6863 19.2203 12.6578 18.0771 11.7181L18.0768 11.7179C14.5416 8.81554 8.75802 8.98765 5.27921 11.9008C5.27908 11.9009 5.27896 11.901 5.27883 11.9011L5.76038 12.4761L25.5071 17.783ZM30.0832 13.211L30.078 13.2162L24.0137 38.8416C16.1346 40.5189 7.86811 36.9834 3.69432 30.1326L3.69402 30.1321C-0.558824 23.1635 -0.207711 14.6927 4.78081 8.28463L4.78083 8.28461C11.2431 -0.0172367 22.0837 -1.22781 29.9635 3.52014C31.8472 4.65642 33.3774 6.18477 34.9834 7.80513C35.0847 7.90839 35.1196 7.97616 35.131 8.00572C35.1397 8.02841 35.1385 8.03644 35.137 8.04519C35.1294 8.0905 35.0769 8.22182 34.8395 8.45901L32.4588 10.8376L30.0833 13.2109C30.0833 13.2109 30.0833 13.2109 30.0832 13.211ZM19.376 27.1631C20.0679 26.474 20.7566 25.7854 21.4449 25.0971C22.3614 24.1805 23.2772 23.2646 24.1993 22.3494L24.1996 22.349C24.7133 21.8385 24.8891 21.8063 24.9241 21.8056C24.9427 21.8052 25.1018 21.8127 25.5951 22.3057L25.5965 22.307C28.633 25.325 31.6592 28.3538 34.6861 31.3885C34.8977 31.6011 35.014 31.7437 35.0758 31.8444C35.1031 31.8887 35.1137 31.915 35.1175 31.9273C35.1135 31.9423 35.0993 31.9831 35.0524 32.0586C34.9762 32.1812 34.8473 32.3426 34.6358 32.5755L19.376 27.1631ZM19.376 27.1631C18.6363 27.902 17.81 28.5371 16.8919 29.0548L16.8912 29.0552C11.9401 31.8398 5.53753 30.068 2.76279 25.1357L19.376 27.1631ZM35.1194 31.9356C35.1193 31.9358 35.1189 31.9343 35.1187 31.9315C35.1193 31.9342 35.1195 31.9355 35.1194 31.9356ZM34.6356 32.5757C31.723 35.7808 28.2474 37.9379 24.014 38.8415L34.6356 32.5757Z" stroke="white" stroke-width="1.5"/>
</svg>
