<svg width="432" height="312" viewBox="0 0 432 312" fill="none" xmlns="http://www.w3.org/2000/svg">
<path d="M114.407 146.231L206.678 98.0817L191.27 69.1924L106.703 102.809C104.777 103.684 101.976 103.684 100.05 102.809L15.4828 69.1924L0.0751953 98.0817L92.346 146.231L0.0751953 194.379L15.4828 223.269L100.05 189.652C101.976 188.777 104.777 188.777 106.703 189.652L191.27 223.269L206.678 194.379L114.407 146.231Z" fill="url(#paint0_linear_278_406)"/>
<path d="M406.916 117.255C399.69 124.491 392.463 131.753 385.212 138.989C381.075 143.106 378.708 143.031 374.497 138.964C364.679 129.507 355.758 119.077 345.217 110.393C329.843 97.7419 304.326 98.4406 289.076 111.241C270.412 126.887 267.646 151.291 277.962 169.656C290.147 191.365 318.33 199.2 340.109 186.923C344.171 184.628 347.834 181.808 351.123 178.514C358.748 170.904 366.348 163.243 373.998 155.632C378.758 150.891 381.001 150.792 385.635 155.433C400.038 169.781 414.392 184.178 428.745 198.601C433.006 202.893 432.757 204.59 428.62 209.156C414.367 224.876 397.248 235.556 376.366 240.023C337.542 248.307 296.825 230.865 276.243 197.004C255.336 162.669 257.03 120.798 281.625 89.1332C313.446 48.1607 366.872 42.197 405.67 65.6277C415.039 71.2919 422.59 78.8776 430.165 86.5381C433.105 89.5324 432.009 92.1275 429.467 94.6727C421.942 102.208 414.416 109.744 406.891 117.28L406.916 117.255Z" fill="url(#paint1_linear_278_406)"/>
<g filter="url(#filter0_b_278_406)">
<circle cx="215.839" cy="156" r="156" fill="#03E2D2" fill-opacity="0.1"/>
<circle cx="215.839" cy="156" r="154.5" stroke="url(#paint2_linear_278_406)" stroke-width="3"/>
</g>
<path d="M114.407 146.231L206.678 98.0817L191.27 69.1924L106.703 102.809C104.777 103.684 101.976 103.684 100.05 102.809L15.4828 69.1924L0.0751953 98.0817L92.346 146.231L0.0751953 194.379L15.4828 223.269L100.05 189.652C101.976 188.777 104.777 188.777 106.703 189.652L191.27 223.269L206.678 194.379L114.407 146.231Z" fill="white"/>
<path d="M406.916 117.255C399.69 124.491 392.463 131.753 385.212 138.989C381.075 143.106 378.708 143.031 374.497 138.964C364.679 129.507 355.758 119.077 345.217 110.393C329.843 97.7419 304.326 98.4406 289.076 111.241C270.412 126.887 267.646 151.291 277.962 169.656C290.147 191.365 318.33 199.2 340.109 186.923C344.171 184.628 347.834 181.808 351.123 178.514C358.748 170.904 366.348 163.243 373.998 155.632C378.758 150.891 381.001 150.792 385.635 155.433C400.038 169.781 414.392 184.178 428.745 198.601C433.006 202.893 432.757 204.59 428.62 209.156C414.367 224.876 397.248 235.556 376.366 240.023C337.542 248.307 296.825 230.865 276.243 197.004C255.336 162.669 257.03 120.798 281.625 89.1332C313.446 48.1607 366.872 42.197 405.67 65.6277C415.039 71.2919 422.59 78.8776 430.165 86.5381C433.105 89.5324 432.009 92.1275 429.467 94.6727C421.942 102.208 414.416 109.744 406.891 117.28L406.916 117.255Z" fill="white"/>
<defs>
<filter id="filter0_b_278_406" x="9.83887" y="-50" width="412" height="412" filterUnits="userSpaceOnUse" color-interpolation-filters="sRGB">
<feFlood flood-opacity="0" result="BackgroundImageFix"/>
<feGaussianBlur in="BackgroundImageFix" stdDeviation="25"/>
<feComposite in2="SourceAlpha" operator="in" result="effect1_backgroundBlur_278_406"/>
<feBlend mode="normal" in="SourceGraphic" in2="effect1_backgroundBlur_278_406" result="shape"/>
</filter>
<linearGradient id="paint0_linear_278_406" x1="103.376" y1="69.1924" x2="101.574" y2="250.646" gradientUnits="userSpaceOnUse">
<stop stop-color="#03E2D2"/>
<stop offset="1" stop-color="white" stop-opacity="0"/>
</linearGradient>
<linearGradient id="paint1_linear_278_406" x1="346.705" y1="26.5818" x2="346.847" y2="242.064" gradientUnits="userSpaceOnUse">
<stop stop-color="#03E2D2"/>
<stop offset="1" stop-color="white"/>
</linearGradient>
<linearGradient id="paint2_linear_278_406" x1="300.65" y1="1.65404e-06" x2="109.935" y2="290.028" gradientUnits="userSpaceOnUse">
<stop stop-color="#03E2D2" stop-opacity="0"/>
<stop offset="0.552083" stop-color="#03E2D2"/>
<stop offset="1" stop-color="#03E2D2" stop-opacity="0"/>
</linearGradient>
</defs>
</svg>
